<svg width="14" height="13" viewBox="0 0 14 13" fill="none" xmlns="http://www.w3.org/2000/svg">
<path d="M1.5943 7.37828H10.4852L6.60091 11.1151C6.29049 11.4138 6.29049 11.9039 6.60091 12.2025C6.91134 12.5012 7.4128 12.5012 7.72322 12.2025L12.9686 7.15622C13.279 6.85757 13.279 6.37515 12.9686 6.07651L7.73118 1.02255C7.58247 0.879166 7.38057 0.798584 7.17003 0.798584C6.95948 0.798584 6.75758 0.879166 6.60887 1.02255C6.29845 1.3212 6.29845 1.80362 6.60887 2.10226L10.4852 5.84678H1.5943C1.15652 5.84678 0.79834 6.19137 0.79834 6.61253C0.79834 7.0337 1.15652 7.37828 1.5943 7.37828Z" fill="#F5F5F5" stroke="#F5F5F5"/>
</svg>
