<svg width="528" height="716" viewBox="0 0 528 716" fill="none" xmlns="http://www.w3.org/2000/svg">
<path d="M26.1286 238.865C39.1043 107.154 156.815 10.5563 288.483 23.5279C420.194 36.5036 516.792 154.214 503.816 285.925C490.84 417.635 373.134 514.191 241.423 501.215C109.751 488.286 13.1529 370.575 26.1286 238.865ZM491.769 284.738C504.09 159.683 412.394 47.8985 287.297 35.5743C162.241 23.2543 50.4992 114.954 38.175 240.051C25.8549 365.107 117.554 476.849 242.61 489.169C367.703 501.535 479.449 409.794 491.769 284.738Z" fill="url(#paint0_radial_721_6909)"/>
<path d="M54.8528 241.693C66.2683 125.82 169.816 40.8834 285.647 52.2947C401.52 63.7101 486.499 167.262 475.088 283.093C463.673 398.967 360.124 483.903 244.251 472.488C128.416 461.119 43.4374 357.566 54.8528 241.693ZM464.052 282.006C474.866 172.24 394.368 74.1481 284.602 63.3343C174.836 52.5206 76.7441 133.019 65.9304 242.785C55.1166 352.55 135.615 450.643 245.381 461.456C355.146 472.27 453.239 391.772 464.052 282.006Z" fill="url(#paint1_radial_721_6909)"/>
<path d="M83.5819 244.529C93.4371 144.493 182.827 71.1753 282.82 81.0264C382.856 90.8816 456.216 180.275 446.365 280.269C436.51 380.305 347.12 453.622 247.084 443.767C147.086 433.958 73.7267 344.565 83.5819 244.529ZM436.34 279.281C445.648 184.805 376.351 100.363 281.875 91.0551C187.399 81.7477 102.956 151.044 93.6487 245.521C84.3412 339.997 153.638 424.439 248.114 433.747C342.59 443.054 427.033 373.757 436.34 279.281Z" fill="url(#paint2_radial_721_6909)"/>
<path d="M112.307 247.353C120.602 163.154 195.832 101.456 279.989 109.747C364.187 118.041 425.886 193.272 417.595 277.429C409.304 361.585 334.069 423.326 249.913 415.035C165.752 406.786 104.012 331.552 112.307 247.353ZM408.624 276.545C416.425 197.359 358.329 126.566 279.143 118.764C199.957 110.963 129.164 169.059 121.362 248.245C113.561 327.431 171.657 398.224 250.843 406.026C330.029 413.827 400.822 355.731 408.624 276.545Z" fill="url(#paint3_radial_721_6909)"/>
<path d="M141.034 250.186C147.768 181.825 208.841 131.745 277.16 138.476C345.479 145.207 395.601 206.283 388.87 274.602C382.139 342.922 321.063 393.043 252.744 386.312C184.424 379.582 134.299 318.548 141.034 250.186ZM380.867 273.814C387.162 209.917 340.268 152.774 276.371 146.479C212.475 140.184 155.331 187.078 149.036 250.975C142.742 314.871 189.636 372.015 253.532 378.31C317.471 384.609 374.572 337.711 380.867 273.814Z" fill="url(#paint4_radial_721_6909)"/>
<path d="M169.758 253.01C174.929 200.528 221.846 162.026 274.328 167.196C326.81 172.367 365.313 219.284 360.142 271.766C354.972 324.248 308.054 362.751 255.572 357.58C203.086 352.452 164.588 305.492 169.758 253.01ZM353.15 271.077C357.939 222.471 322.289 178.981 273.64 174.188C225.033 169.4 181.543 205.05 176.75 253.699C171.962 302.306 207.612 345.796 256.261 350.588C304.91 355.381 348.358 319.726 353.15 271.077Z" fill="url(#paint5_radial_721_6909)"/>
<path d="M198.485 255.841C202.095 219.196 234.854 192.313 271.499 195.923C308.143 199.533 335.027 232.292 331.417 268.937C327.806 305.582 295.047 332.465 258.403 328.855C221.754 325.287 194.874 292.486 198.485 255.841ZM325.436 268.348C328.722 234.988 304.265 205.233 270.947 201.95C237.63 198.668 207.832 223.121 204.55 256.439C201.263 289.798 225.721 319.554 259.038 322.836C292.351 326.16 322.149 301.707 325.436 268.348Z" fill="url(#paint6_radial_721_6909)"/>
<path d="M227.214 258.675C229.264 237.867 247.864 222.603 268.672 224.653C289.479 226.703 304.743 245.303 302.694 266.111C300.644 286.918 282.043 302.182 261.236 300.132C240.424 298.125 225.164 279.482 227.214 258.675ZM297.723 265.621C299.503 247.551 286.248 231.445 268.22 229.669C250.15 227.889 234.044 241.145 232.268 259.173C230.488 277.242 243.744 293.348 261.772 295.124C279.799 296.9 295.943 283.691 297.723 265.621Z" fill="url(#paint7_radial_721_6909)"/>
<path d="M248.356 260.756C249.261 251.574 257.451 244.853 266.633 245.758C275.815 246.662 282.536 254.852 281.632 264.034C280.727 273.217 272.537 279.937 263.355 279.033C254.173 278.128 247.452 269.938 248.356 260.756ZM277.588 263.636C278.273 256.686 273.189 250.444 266.197 249.755C259.247 249.07 253.005 254.154 252.316 261.146C251.631 268.096 256.715 274.338 263.707 275.027C270.699 275.716 276.903 270.586 277.588 263.636Z" fill="url(#paint8_radial_721_6909)"/>
<path d="M205.732 532.599C214.058 448.084 289.589 386.101 374.077 394.424C458.591 402.75 520.574 478.281 512.248 562.796C503.922 647.31 428.394 709.266 343.88 700.94C259.39 692.644 197.406 617.113 205.732 532.599ZM504.518 562.034C512.424 481.79 453.586 410.062 373.315 402.154C293.071 394.249 221.37 453.089 213.462 533.36C205.557 613.604 264.397 685.305 344.641 693.21C424.909 701.145 496.613 642.278 504.518 562.034Z" fill="url(#paint9_radial_721_6909)"/>
<path d="M224.164 534.414C231.489 460.062 297.932 405.561 372.257 412.883C446.609 420.208 501.137 486.654 493.815 560.979C486.49 635.331 420.046 689.832 345.694 682.507C271.367 675.211 216.839 608.765 224.164 534.414ZM486.733 560.281C493.672 489.848 442.019 426.905 371.586 419.967C301.153 413.028 238.211 464.681 231.272 535.114C224.333 605.547 275.986 668.489 346.419 675.428C416.852 682.367 479.795 630.714 486.733 560.281Z" fill="url(#paint10_radial_721_6909)"/>
<path d="M242.598 536.233C248.922 472.043 306.28 424.998 370.443 431.319C434.632 437.643 481.705 495.004 475.384 559.166C469.06 623.356 411.702 670.401 347.512 664.078C283.347 657.784 236.274 600.423 242.598 536.233ZM468.951 558.533C474.924 497.91 430.458 443.726 369.836 437.754C309.214 431.782 255.03 476.247 249.058 536.869C243.085 597.492 287.551 651.676 348.173 657.648C408.795 663.62 462.979 619.155 468.951 558.533Z" fill="url(#paint11_radial_721_6909)"/>
<path d="M261.03 538.045C266.352 484.018 314.625 444.428 368.626 449.748C422.653 455.07 462.243 503.343 456.923 557.344C451.603 611.344 403.328 650.961 349.327 645.641C295.324 640.348 255.707 592.073 261.03 538.045ZM451.167 556.777C456.172 505.966 418.894 460.54 368.083 455.534C317.272 450.528 271.846 487.806 266.841 538.618C261.835 589.429 299.113 634.854 349.924 639.86C400.735 644.866 446.161 607.588 451.167 556.777Z" fill="url(#paint12_radial_721_6909)"/>
<path d="M279.463 539.863C283.784 495.998 322.972 463.864 366.811 468.183C410.649 472.501 442.81 511.692 438.491 555.53C434.173 599.368 394.982 631.53 351.144 627.211C307.305 622.892 275.141 583.728 279.463 539.863ZM433.356 555.024C437.395 514.024 407.305 477.357 366.305 473.318C325.304 469.278 288.637 499.369 284.598 540.369C280.559 581.369 310.649 618.036 351.65 622.076C392.677 626.118 429.317 596.025 433.356 555.024Z" fill="url(#paint13_radial_721_6909)"/>
<path d="M297.895 541.675C301.212 507.999 331.318 483.294 364.994 486.611C398.67 489.929 423.375 520.034 420.058 553.71C416.74 587.386 386.635 612.092 352.959 608.774C319.28 605.484 294.577 575.351 297.895 541.675ZM415.571 553.268C418.644 522.079 395.768 494.173 364.552 491.098C333.362 488.025 305.456 510.901 302.381 542.117C299.308 573.307 322.184 601.213 353.401 604.288C384.617 607.363 412.496 584.485 415.571 553.268Z" fill="url(#paint14_radial_721_6909)"/>
<path d="M316.327 543.492C318.644 519.978 339.664 502.728 363.178 505.044C386.692 507.361 403.942 528.381 401.625 551.895C399.309 575.409 378.288 592.659 354.775 590.342C331.258 588.053 314.011 567.005 316.327 543.492ZM397.788 551.517C399.896 530.111 384.203 511.018 362.824 508.912C341.446 506.806 322.325 522.497 320.219 543.875C318.11 565.281 333.804 584.374 355.183 586.48C376.558 588.613 395.679 572.922 397.788 551.517Z" fill="url(#paint15_radial_721_6909)"/>
<path d="M334.762 545.31C336.077 531.959 348.013 522.164 361.364 523.479C374.715 524.795 384.51 536.73 383.195 550.081C381.879 563.433 369.944 573.227 356.593 571.912C343.238 570.624 333.447 558.661 334.762 545.31ZM380.006 549.767C381.148 538.173 372.642 527.838 361.074 526.698C349.48 525.556 339.145 534.062 338.005 545.629C336.863 557.224 345.369 567.559 356.936 568.698C368.504 569.838 378.863 561.362 380.006 549.767Z" fill="url(#paint16_radial_721_6909)"/>
<path d="M348.328 546.646C348.909 540.754 354.164 536.441 360.056 537.022C365.948 537.602 370.26 542.857 369.68 548.749C369.1 554.641 363.844 558.954 357.952 558.373C352.061 557.793 347.748 552.538 348.328 546.646ZM367.085 548.493C367.525 544.034 364.262 540.028 359.776 539.586C355.316 539.147 351.311 542.409 350.869 546.896C350.43 551.355 353.692 555.361 358.178 555.803C362.665 556.245 366.646 552.953 367.085 548.493Z" fill="url(#paint17_radial_721_6909)"/>
<defs>
<radialGradient id="paint0_radial_721_6909" cx="0" cy="0" r="1" gradientUnits="userSpaceOnUse" gradientTransform="translate(265.412 262.417) rotate(-174.374) scale(240.439 240.439)">
<stop stop-color="#E2EAF4"/>
<stop offset="1" stop-color="#E2EAF4" stop-opacity="0"/>
</radialGradient>
<radialGradient id="paint1_radial_721_6909" cx="0" cy="0" r="1" gradientUnits="userSpaceOnUse" gradientTransform="translate(265.412 262.417) rotate(-174.374) scale(240.439 240.439)">
<stop stop-color="#E2EAF4"/>
<stop offset="1" stop-color="#E2EAF4" stop-opacity="0"/>
</radialGradient>
<radialGradient id="paint2_radial_721_6909" cx="0" cy="0" r="1" gradientUnits="userSpaceOnUse" gradientTransform="translate(265.412 262.417) rotate(-174.374) scale(240.439 240.439)">
<stop stop-color="#E2EAF4"/>
<stop offset="1" stop-color="#E2EAF4" stop-opacity="0"/>
</radialGradient>
<radialGradient id="paint3_radial_721_6909" cx="0" cy="0" r="1" gradientUnits="userSpaceOnUse" gradientTransform="translate(265.412 262.417) rotate(-174.374) scale(240.439 240.439)">
<stop stop-color="#E2EAF4"/>
<stop offset="1" stop-color="#E2EAF4" stop-opacity="0"/>
</radialGradient>
<radialGradient id="paint4_radial_721_6909" cx="0" cy="0" r="1" gradientUnits="userSpaceOnUse" gradientTransform="translate(265.412 262.417) rotate(-174.374) scale(240.439 240.439)">
<stop stop-color="#E2EAF4"/>
<stop offset="1" stop-color="#E2EAF4" stop-opacity="0"/>
</radialGradient>
<radialGradient id="paint5_radial_721_6909" cx="0" cy="0" r="1" gradientUnits="userSpaceOnUse" gradientTransform="translate(265.412 262.417) rotate(-174.374) scale(240.439 240.439)">
<stop stop-color="#E2EAF4"/>
<stop offset="1" stop-color="#E2EAF4" stop-opacity="0"/>
</radialGradient>
<radialGradient id="paint6_radial_721_6909" cx="0" cy="0" r="1" gradientUnits="userSpaceOnUse" gradientTransform="translate(265.412 262.417) rotate(-174.374) scale(240.439 240.439)">
<stop stop-color="#E2EAF4"/>
<stop offset="1" stop-color="#E2EAF4" stop-opacity="0"/>
</radialGradient>
<radialGradient id="paint7_radial_721_6909" cx="0" cy="0" r="1" gradientUnits="userSpaceOnUse" gradientTransform="translate(265.412 262.417) rotate(-174.374) scale(240.439 240.439)">
<stop stop-color="#E2EAF4"/>
<stop offset="1" stop-color="#E2EAF4" stop-opacity="0"/>
</radialGradient>
<radialGradient id="paint8_radial_721_6909" cx="0" cy="0" r="1" gradientUnits="userSpaceOnUse" gradientTransform="translate(265.412 262.417) rotate(-174.374) scale(240.439 240.439)">
<stop stop-color="#E2EAF4"/>
<stop offset="1" stop-color="#E2EAF4" stop-opacity="0"/>
</radialGradient>
<radialGradient id="paint9_radial_721_6909" cx="0" cy="0" r="1" gradientUnits="userSpaceOnUse" gradientTransform="translate(359.272 547.711) rotate(-174.374) scale(154.282)">
<stop stop-color="#E2EAF4"/>
<stop offset="1" stop-color="#E2EAF4" stop-opacity="0"/>
</radialGradient>
<radialGradient id="paint10_radial_721_6909" cx="0" cy="0" r="1" gradientUnits="userSpaceOnUse" gradientTransform="translate(359.272 547.711) rotate(-174.374) scale(154.282)">
<stop stop-color="#E2EAF4"/>
<stop offset="1" stop-color="#E2EAF4" stop-opacity="0"/>
</radialGradient>
<radialGradient id="paint11_radial_721_6909" cx="0" cy="0" r="1" gradientUnits="userSpaceOnUse" gradientTransform="translate(359.272 547.711) rotate(-174.374) scale(154.282)">
<stop stop-color="#E2EAF4"/>
<stop offset="1" stop-color="#E2EAF4" stop-opacity="0"/>
</radialGradient>
<radialGradient id="paint12_radial_721_6909" cx="0" cy="0" r="1" gradientUnits="userSpaceOnUse" gradientTransform="translate(359.272 547.711) rotate(-174.374) scale(154.282)">
<stop stop-color="#E2EAF4"/>
<stop offset="1" stop-color="#E2EAF4" stop-opacity="0"/>
</radialGradient>
<radialGradient id="paint13_radial_721_6909" cx="0" cy="0" r="1" gradientUnits="userSpaceOnUse" gradientTransform="translate(359.272 547.711) rotate(-174.374) scale(154.282)">
<stop stop-color="#E2EAF4"/>
<stop offset="1" stop-color="#E2EAF4" stop-opacity="0"/>
</radialGradient>
<radialGradient id="paint14_radial_721_6909" cx="0" cy="0" r="1" gradientUnits="userSpaceOnUse" gradientTransform="translate(359.272 547.711) rotate(-174.374) scale(154.282)">
<stop stop-color="#E2EAF4"/>
<stop offset="1" stop-color="#E2EAF4" stop-opacity="0"/>
</radialGradient>
<radialGradient id="paint15_radial_721_6909" cx="0" cy="0" r="1" gradientUnits="userSpaceOnUse" gradientTransform="translate(359.272 547.711) rotate(-174.374) scale(154.282)">
<stop stop-color="#E2EAF4"/>
<stop offset="1" stop-color="#E2EAF4" stop-opacity="0"/>
</radialGradient>
<radialGradient id="paint16_radial_721_6909" cx="0" cy="0" r="1" gradientUnits="userSpaceOnUse" gradientTransform="translate(359.272 547.711) rotate(-174.374) scale(154.282)">
<stop stop-color="#E2EAF4"/>
<stop offset="1" stop-color="#E2EAF4" stop-opacity="0"/>
</radialGradient>
<radialGradient id="paint17_radial_721_6909" cx="0" cy="0" r="1" gradientUnits="userSpaceOnUse" gradientTransform="translate(359.272 547.711) rotate(-174.374) scale(154.282)">
<stop stop-color="#E2EAF4"/>
<stop offset="1" stop-color="#E2EAF4" stop-opacity="0"/>
</radialGradient>
</defs>
</svg>
