<svg width="48" height="48" viewBox="0 0 48 48" fill="none" xmlns="http://www.w3.org/2000/svg">
<rect width="48" height="48" rx="24" fill="white"/>
<path d="M28.8123 30.4652L30.4478 28.8457L25.1877 23.5503V16.9319H23.0123V24.4284L28.8123 30.4652ZM24.0011 37.5326C22.1463 37.5326 20.3961 37.1777 18.7506 36.4677C17.1052 35.7578 15.6683 34.7888 14.44 33.5607C13.2117 32.3326 12.2425 30.8959 11.5324 29.2507C10.8224 27.6055 10.4674 25.8556 10.4674 24.0009C10.4674 22.1462 10.8229 20.3958 11.534 18.7497C12.2451 17.1037 13.214 15.6673 14.4406 14.4406C15.6673 13.214 17.1034 12.2437 18.749 11.53C20.3946 10.8163 22.1449 10.4594 24 10.4594C25.8551 10.4594 27.6055 10.8163 29.251 11.53C30.8966 12.2437 32.3327 13.214 33.5594 14.4406C34.7861 15.6673 35.7563 17.1034 36.47 18.749C37.1837 20.3946 37.5406 22.1449 37.5406 24C37.5406 25.8551 37.1837 27.6055 36.47 29.251C35.7563 30.8966 34.7861 32.3327 33.5594 33.5594C32.3327 34.7861 30.8967 35.7549 29.2514 36.466C27.606 37.1771 25.856 37.5326 24.0011 37.5326ZM23.9959 35.2616C27.0885 35.2616 29.7393 34.1598 31.9482 31.9562C34.1571 29.7526 35.2616 27.1018 35.2616 24.004C35.2616 20.9062 34.1575 18.2541 31.9492 16.0478C29.741 13.8416 27.0913 12.7384 24.0001 12.7384C20.9049 12.7384 18.2541 13.8412 16.0478 16.0468C13.8416 18.2525 12.7384 20.9035 12.7384 24C12.7384 27.1005 13.8415 29.7526 16.0478 31.9562C18.254 34.1598 20.9034 35.2616 23.9959 35.2616Z" fill="#0084CB"/>
</svg>
