<svg width="410" height="526" viewBox="0 0 410 526" fill="none" xmlns="http://www.w3.org/2000/svg">
<path d="M286.025 572C128.31 572 0 443.69 0 286.025C0 128.31 128.31 0 286.025 0C443.74 0 572 128.31 572 286.025C572.05 443.69 443.74 572 286.025 572ZM286.025 14.4249C136.279 14.4249 14.4248 136.229 14.4248 286.025C14.4248 435.771 136.229 557.575 286.025 557.575C435.771 557.575 557.575 435.771 557.575 286.025C557.626 136.229 435.771 14.4249 286.025 14.4249Z" fill="url(#paint0_radial_1087_28638)"/>
<path d="M286.024 537.605C147.273 537.605 34.4466 424.728 34.4466 286.028C34.4466 147.277 147.323 34.4001 286.024 34.4001C424.774 34.4001 537.601 147.277 537.601 286.028C537.651 424.728 424.774 537.605 286.024 537.605ZM286.024 47.6144C154.586 47.6144 47.6609 154.54 47.6609 285.977C47.6609 417.415 154.586 524.34 286.024 524.34C417.461 524.34 524.386 417.415 524.386 285.977C524.386 154.54 417.461 47.6144 286.024 47.6144Z" fill="url(#paint1_radial_1087_28638)"/>
<path d="M286.03 503.203C166.243 503.203 68.8506 405.76 68.8506 286.023C68.8506 166.237 166.294 68.7935 286.03 68.7935C405.817 68.7935 503.209 166.237 503.209 286.023C503.26 405.76 405.817 503.203 286.03 503.203ZM286.03 80.7975C172.901 80.7975 80.8544 172.844 80.8544 285.973C80.8544 399.102 172.901 491.148 286.03 491.148C399.159 491.148 491.205 399.102 491.205 285.973C491.205 172.844 399.159 80.7975 286.03 80.7975Z" fill="url(#paint2_radial_1087_28638)"/>
<path d="M286.023 468.808C185.201 468.808 103.241 386.798 103.241 286.026C103.241 185.203 185.251 103.244 286.023 103.244C386.795 103.244 468.805 185.254 468.805 286.026C468.855 386.798 386.846 468.808 286.023 468.808ZM286.023 113.987C191.203 113.987 114.035 191.155 114.035 285.975C114.035 380.796 191.203 457.964 286.023 457.964C380.844 457.964 458.011 380.796 458.011 285.975C458.011 191.155 380.844 113.987 286.023 113.987Z" fill="url(#paint3_radial_1087_28638)"/>
<path d="M286.027 434.408C204.169 434.408 137.643 367.832 137.643 286.024C137.643 204.216 204.219 137.64 286.027 137.64C367.835 137.64 434.411 204.216 434.411 286.024C434.411 367.832 367.885 434.408 286.027 434.408ZM286.027 147.223C209.515 147.223 147.226 209.512 147.226 286.024C147.226 362.536 209.515 424.825 286.027 424.825C362.539 424.825 424.828 362.536 424.828 286.024C424.828 209.462 362.539 147.223 286.027 147.223Z" fill="url(#paint4_radial_1087_28638)"/>
<path d="M286.02 400.013C223.176 400.013 172.034 348.871 172.034 286.027C172.034 223.183 223.176 172.04 286.02 172.04C348.864 172.04 400.007 223.183 400.007 286.027C400.057 348.871 348.864 400.013 286.02 400.013ZM286.02 180.413C227.816 180.413 180.406 227.773 180.406 286.027C180.406 344.23 227.766 391.641 286.02 391.641C344.224 391.641 391.634 344.281 391.634 286.027C391.634 227.773 344.274 180.413 286.02 180.413Z" fill="url(#paint5_radial_1087_28638)"/>
<path d="M286.021 365.615C242.141 365.615 206.432 329.906 206.432 286.026C206.432 242.147 242.141 206.438 286.021 206.438C329.901 206.438 365.61 242.147 365.61 286.026C365.66 329.906 329.901 365.615 286.021 365.615ZM286.021 213.6C246.075 213.6 213.645 246.081 213.645 285.976C213.645 325.871 246.126 358.352 286.021 358.352C325.967 358.352 358.397 325.871 358.397 285.976C358.448 246.081 325.967 213.6 286.021 213.6Z" fill="url(#paint6_radial_1087_28638)"/>
<path d="M286.025 331.213C261.109 331.213 240.834 310.938 240.834 286.022C240.834 261.107 261.109 240.831 286.025 240.831C310.941 240.831 331.216 261.107 331.216 286.022C331.266 310.938 310.941 331.213 286.025 331.213ZM286.025 246.783C264.388 246.783 246.836 264.385 246.836 285.972C246.836 307.609 264.438 325.161 286.025 325.161C307.662 325.161 325.214 307.559 325.214 285.972C325.214 264.385 307.662 246.783 286.025 246.783Z" fill="url(#paint7_radial_1087_28638)"/>
<path d="M286.023 305.897C275.028 305.897 266.101 296.969 266.101 285.974C266.101 274.979 275.028 266.052 286.023 266.052C297.018 266.052 305.946 274.979 305.946 285.974C305.946 296.969 297.018 305.897 286.023 305.897ZM286.023 270.894C277.701 270.894 270.892 277.652 270.892 286.025C270.892 294.347 277.651 301.156 286.023 301.156C294.345 301.156 301.154 294.397 301.154 286.025C301.154 277.652 294.345 270.894 286.023 270.894Z" fill="url(#paint8_radial_1087_28638)"/>
<defs>
<radialGradient id="paint0_radial_1087_28638" cx="0" cy="0" r="1" gradientUnits="userSpaceOnUse" gradientTransform="translate(286 285.476) rotate(90) scale(286.524)">
<stop stop-color="#E2EAF4"/>
<stop offset="1" stop-color="#E2EAF4" stop-opacity="0"/>
</radialGradient>
<radialGradient id="paint1_radial_1087_28638" cx="0" cy="0" r="1" gradientUnits="userSpaceOnUse" gradientTransform="translate(286 285.476) rotate(90) scale(286.524)">
<stop stop-color="#E2EAF4"/>
<stop offset="1" stop-color="#E2EAF4" stop-opacity="0"/>
</radialGradient>
<radialGradient id="paint2_radial_1087_28638" cx="0" cy="0" r="1" gradientUnits="userSpaceOnUse" gradientTransform="translate(286 285.476) rotate(90) scale(286.524)">
<stop stop-color="#E2EAF4"/>
<stop offset="1" stop-color="#E2EAF4" stop-opacity="0"/>
</radialGradient>
<radialGradient id="paint3_radial_1087_28638" cx="0" cy="0" r="1" gradientUnits="userSpaceOnUse" gradientTransform="translate(286 285.476) rotate(90) scale(286.524)">
<stop stop-color="#E2EAF4"/>
<stop offset="1" stop-color="#E2EAF4" stop-opacity="0"/>
</radialGradient>
<radialGradient id="paint4_radial_1087_28638" cx="0" cy="0" r="1" gradientUnits="userSpaceOnUse" gradientTransform="translate(286 285.476) rotate(90) scale(286.524)">
<stop stop-color="#E2EAF4"/>
<stop offset="1" stop-color="#E2EAF4" stop-opacity="0"/>
</radialGradient>
<radialGradient id="paint5_radial_1087_28638" cx="0" cy="0" r="1" gradientUnits="userSpaceOnUse" gradientTransform="translate(286 285.476) rotate(90) scale(286.524)">
<stop stop-color="#E2EAF4"/>
<stop offset="1" stop-color="#E2EAF4" stop-opacity="0"/>
</radialGradient>
<radialGradient id="paint6_radial_1087_28638" cx="0" cy="0" r="1" gradientUnits="userSpaceOnUse" gradientTransform="translate(286 285.476) rotate(90) scale(286.524)">
<stop stop-color="#E2EAF4"/>
<stop offset="1" stop-color="#E2EAF4" stop-opacity="0"/>
</radialGradient>
<radialGradient id="paint7_radial_1087_28638" cx="0" cy="0" r="1" gradientUnits="userSpaceOnUse" gradientTransform="translate(286 285.476) rotate(90) scale(286.524)">
<stop stop-color="#E2EAF4"/>
<stop offset="1" stop-color="#E2EAF4" stop-opacity="0"/>
</radialGradient>
<radialGradient id="paint8_radial_1087_28638" cx="0" cy="0" r="1" gradientUnits="userSpaceOnUse" gradientTransform="translate(286 285.476) rotate(90) scale(286.524)">
<stop stop-color="#E2EAF4"/>
<stop offset="1" stop-color="#E2EAF4" stop-opacity="0"/>
</radialGradient>
</defs>
</svg>
