<svg width="48" height="48" viewBox="0 0 48 48" fill="none" xmlns="http://www.w3.org/2000/svg">
<rect width="48" height="48" rx="24" fill="white"/>
<path d="M11.729 36.271V17.221H17.229V11.721H30.779V22.721H36.279V36.271H25.7667V30.5H22.2334V36.271H11.729ZM14 34H17.5V30.5H14V34ZM14 28.5H17.5V25H14V28.5ZM14 23H17.5V19.5H14V23ZM19.5 28.5H23V25H19.5V28.5ZM19.5 23H23V19.5H19.5V23ZM19.5 17.5H23V14H19.5V17.5ZM25 28.5H28.5V25H25V28.5ZM25 23H28.5V19.5H25V23ZM25 17.5H28.5V14H25V17.5ZM30.5 34H34V30.5H30.5V34ZM30.5 28.5H34V25H30.5V28.5Z" fill="#0084CB"/>
</svg>
