<svg width="48" height="48" viewBox="0 0 48 48" fill="none" xmlns="http://www.w3.org/2000/svg">
<rect width="48" height="48" rx="24" fill="white"/>
<path d="M33.9761 36.1993C31.5761 36.1993 29.0629 35.5648 26.4363 34.296C23.8097 33.0272 21.3525 31.2488 19.0645 28.9609C16.7544 26.6783 14.9662 24.2303 13.7 21.6169C12.4339 19.0036 11.8008 16.4752 11.8008 14.0319V11.7927H19.4218L20.8428 18.3717L16.7754 22.3942C17.3772 23.3525 17.9951 24.2419 18.6289 25.0625C19.2628 25.8831 19.9248 26.6411 20.6148 27.3365C21.3934 28.115 22.2196 28.841 23.0935 29.5145C23.9674 30.1879 24.9 30.7976 25.8913 31.3435L29.9348 27.1826L36.2073 28.559V36.1993H33.9761ZM15.6732 20.3043L18.3653 17.6268L17.6066 14.0717H14.0877C14.0771 14.8896 14.1969 15.8062 14.4471 16.8214C14.6974 17.8366 15.1061 18.9976 15.6732 20.3043ZM27.9971 32.4362C28.8711 32.8425 29.8294 33.1777 30.8721 33.4417C31.9149 33.7057 32.9336 33.8625 33.9283 33.9123V30.3789L30.6145 29.6935L27.9971 32.4362Z" fill="#0084CB"/>
</svg>
