<svg width="200" height="32" viewBox="0 0 200 32" fill="none" xmlns="http://www.w3.org/2000/svg">
<g clip-path="url(#clip0_377_1058)">
<rect width="32" height="32" rx="8" fill="#0084CB"/>
<path d="M32 16C32 7.1635 24.8365 0 16 0C7.1635 0 0 7.16337 0 16C0 23.986 5.851 30.6054 13.5 31.8056V20.625H9.4375V16H13.5V12.475C13.5 8.465 15.8888 6.25 19.5434 6.25C21.294 6.25 23.125 6.5625 23.125 6.5625V10.5H21.1075C19.1198 10.5 18.5 11.7334 18.5 12.9987V16H22.9375L22.2281 20.625H18.5V31.8056C26.149 30.6054 32 23.9861 32 16Z" fill="#0084CB"/>
<path d="M22.2281 20.625L22.9375 16H18.5V12.9987C18.5 11.7332 19.1199 10.5 21.1075 10.5H23.125V6.5625C23.125 6.5625 21.294 6.25 19.5434 6.25C15.8888 6.25 13.5 8.465 13.5 12.475V16H9.4375V20.625H13.5V31.8056C14.327 31.9352 15.1629 32.0002 16 32C16.8371 32.0002 17.673 31.9353 18.5 31.8056V20.625H22.2281Z" fill="#F5F5F5"/>
</g>
<g clip-path="url(#clip1_377_1058)">
<path d="M80.5 0H63.5C59.3579 0 56 3.35786 56 7.5V24.5C56 28.6421 59.3579 32 63.5 32H80.5C84.6421 32 88 28.6421 88 24.5V7.5C88 3.35786 84.6421 0 80.5 0Z" fill="#F5F5F5"/>
<path d="M80.5 0H63.5C59.3579 0 56 3.35786 56 7.5V24.5C56 28.6421 59.3579 32 63.5 32H80.5C84.6421 32 88 28.6421 88 24.5V7.5C88 3.35786 84.6421 0 80.5 0Z" fill="#0084CB"/>
<path d="M80.9465 11.4264C80.9603 11.6247 80.9603 11.8231 80.9603 12.0234C80.9603 18.123 76.3168 25.1577 67.8259 25.1577V25.154C65.3175 25.1576 62.8611 24.4392 60.75 23.0846C61.1147 23.1285 61.4813 23.1504 61.8488 23.1512C63.9277 23.1529 65.9469 22.4556 67.5817 21.1714C66.6185 21.1532 65.685 20.8344 64.9118 20.2596C64.1386 19.6849 63.5643 18.8829 63.2692 17.9657C63.9608 18.0991 64.6738 18.0719 65.3532 17.8862C63.1997 17.4511 61.6504 15.559 61.6504 13.3615V13.303C62.2924 13.6606 63.0109 13.8587 63.7454 13.8807C61.7171 12.5251 61.0919 9.82674 62.3166 7.71699C63.4755 9.14312 64.9215 10.3095 66.5606 11.1404C68.1996 11.9712 69.9952 12.448 71.8305 12.5397C71.6475 11.752 71.6745 10.9301 71.9089 10.1561C72.1432 9.38215 72.5767 8.68327 73.1659 8.12937C75.0251 6.38162 77.9493 6.47124 79.697 8.32949C80.7308 8.1254 81.7221 7.74642 82.6284 7.20887C82.2838 8.2777 81.5626 9.18496 80.5991 9.76187C81.5142 9.65406 82.4078 9.40911 83.25 9.03524C82.6305 9.96299 81.8505 10.7726 80.9465 11.4264Z" fill="#F5F5F5"/>
</g>
<g clip-path="url(#clip2_377_1058)">
<path d="M136.5 0H119.5C115.358 0 112 3.35786 112 7.5V24.5C112 28.6421 115.358 32 119.5 32H136.5C140.642 32 144 28.6421 144 24.5V7.5C144 3.35786 140.642 0 136.5 0Z" fill="url(#paint0_radial_377_1058)"/>
<path d="M136.5 0H119.5C115.358 0 112 3.35786 112 7.5V24.5C112 28.6421 115.358 32 119.5 32H136.5C140.642 32 144 28.6421 144 24.5V7.5C144 3.35786 140.642 0 136.5 0Z" fill="url(#paint1_radial_377_1058)"/>
<path d="M128.001 3.5C124.606 3.5 124.18 3.51488 122.847 3.5755C121.516 3.6365 120.608 3.84712 119.813 4.15625C118.991 4.4755 118.294 4.90262 117.599 5.59762C116.903 6.2925 116.476 6.98987 116.156 7.81175C115.846 8.60675 115.635 9.5155 115.575 10.8456C115.516 12.179 115.5 12.6053 115.5 16.0001C115.5 19.395 115.515 19.8197 115.576 21.153C115.637 22.4837 115.847 23.3921 116.156 24.1869C116.476 25.0091 116.903 25.7065 117.598 26.4013C118.293 27.0966 118.99 27.5247 119.812 27.844C120.607 28.1531 121.515 28.3637 122.846 28.4247C124.179 28.4854 124.605 28.5002 128 28.5002C131.395 28.5002 131.819 28.4854 133.153 28.4247C134.483 28.3637 135.393 28.1531 136.188 27.844C137.01 27.5247 137.706 27.0966 138.401 26.4013C139.096 25.7065 139.523 25.0091 139.844 24.1873C140.151 23.3921 140.362 22.4835 140.424 21.1532C140.484 19.82 140.5 19.395 140.5 16.0001C140.5 12.6053 140.484 12.1792 140.424 10.8459C140.362 9.51512 140.151 8.60688 139.844 7.81213C139.523 6.98988 139.096 6.2925 138.401 5.59762C137.706 4.90237 137.01 4.47525 136.188 4.15637C135.391 3.84712 134.482 3.63638 133.151 3.5755C131.818 3.51488 131.393 3.5 127.997 3.5H128.001ZM126.88 5.75262C127.213 5.75213 127.584 5.75262 128.001 5.75262C131.339 5.75262 131.734 5.76463 133.052 5.8245C134.271 5.88025 134.933 6.08388 135.373 6.255C135.957 6.4815 136.372 6.75238 136.81 7.19C137.247 7.6275 137.518 8.04412 137.745 8.6275C137.916 9.0675 138.12 9.729 138.176 10.9478C138.235 12.2655 138.248 12.6612 138.248 15.9972C138.248 19.3333 138.235 19.7291 138.176 21.0467C138.12 22.2655 137.916 22.927 137.745 23.3671C137.519 23.9505 137.247 24.3659 136.81 24.8031C136.372 25.2406 135.957 25.5114 135.373 25.738C134.933 25.9099 134.271 26.113 133.052 26.1688C131.735 26.2286 131.339 26.2416 128.001 26.2416C124.663 26.2416 124.268 26.2286 122.95 26.1688C121.731 26.1125 121.07 25.9089 120.629 25.7377C120.046 25.5111 119.629 25.2404 119.191 24.8029C118.754 24.3654 118.483 23.9498 118.256 23.3661C118.085 22.926 117.881 22.2645 117.826 21.0457C117.766 19.728 117.754 19.3323 117.754 15.9941C117.754 12.6561 117.766 12.2624 117.826 10.9446C117.881 9.72587 118.085 9.06437 118.256 8.62375C118.483 8.04037 118.754 7.62375 119.192 7.18625C119.629 6.74875 120.046 6.47787 120.629 6.25087C121.07 6.079 121.731 5.87587 122.95 5.81987C124.103 5.76775 124.55 5.75212 126.88 5.7495V5.75262ZM134.674 7.82812C133.846 7.82812 133.174 8.49938 133.174 9.32763C133.174 10.1558 133.846 10.8276 134.674 10.8276C135.502 10.8276 136.174 10.1558 136.174 9.32763C136.174 8.4995 135.502 7.82762 134.674 7.82762V7.82812ZM128.001 9.58075C124.456 9.58075 121.582 12.455 121.582 16.0001C121.582 19.5452 124.456 22.4181 128.001 22.4181C131.546 22.4181 134.42 19.5452 134.42 16.0001C134.42 12.4551 131.546 9.58075 128.001 9.58075H128.001ZM128.001 11.8334C130.302 11.8334 132.168 13.6988 132.168 16.0001C132.168 18.3013 130.302 20.1669 128.001 20.1669C125.7 20.1669 123.835 18.3013 123.835 16.0001C123.835 13.6988 125.7 11.8334 128.001 11.8334Z" fill="#F5F5F5"/>
</g>
<g clip-path="url(#clip3_377_1058)">
<path d="M199.293 8.25937C199.11 7.58107 198.752 6.96268 198.255 6.46579C197.758 5.96889 197.14 5.61083 196.461 5.42725C193.978 4.75 183.984 4.75 183.984 4.75C183.984 4.75 173.989 4.7705 171.506 5.44775C170.827 5.63134 170.209 5.98942 169.712 6.48634C169.215 6.98326 168.857 7.60167 168.674 8.28C167.923 12.6922 167.631 19.4155 168.694 23.6512C168.878 24.3296 169.236 24.9479 169.733 25.4448C170.23 25.9417 170.848 26.2998 171.526 26.4834C174.01 27.1606 184.004 27.1606 184.004 27.1606C184.004 27.1606 193.999 27.1606 196.482 26.4834C197.16 26.2998 197.778 25.9418 198.275 25.4449C198.772 24.948 199.13 24.3296 199.314 23.6512C200.106 19.2327 200.35 12.5136 199.293 8.25937Z" fill="#FF0000"/>
<path d="M180.801 20.7568L189.092 15.9546L180.801 11.1523V20.7568Z" fill="#F5F5F5"/>
</g>
<defs>
<radialGradient id="paint0_radial_377_1058" cx="0" cy="0" r="1" gradientUnits="userSpaceOnUse" gradientTransform="translate(120.5 34.4646) rotate(-90) scale(31.7144 29.4969)">
<stop stop-color="#FFDD55"/>
<stop offset="0.1" stop-color="#FFDD55"/>
<stop offset="0.5" stop-color="#FF543E"/>
<stop offset="1" stop-color="#C837AB"/>
</radialGradient>
<radialGradient id="paint1_radial_377_1058" cx="0" cy="0" r="1" gradientUnits="userSpaceOnUse" gradientTransform="translate(106.64 2.30512) rotate(78.681) scale(14.1765 58.436)">
<stop stop-color="#3771C8"/>
<stop offset="0.128" stop-color="#3771C8"/>
<stop offset="1" stop-color="#6600FF" stop-opacity="0"/>
</radialGradient>
<clipPath id="clip0_377_1058">
<rect width="32" height="32" rx="8" fill="white"/>
</clipPath>
<clipPath id="clip1_377_1058">
<rect width="32" height="32" fill="white" transform="translate(56)"/>
</clipPath>
<clipPath id="clip2_377_1058">
<rect width="32" height="32" fill="white" transform="translate(112)"/>
</clipPath>
<clipPath id="clip3_377_1058">
<rect width="32" height="22.5" fill="white" transform="translate(168 4.75)"/>
</clipPath>
</defs>
</svg>
